<svg width="31" height="31" viewBox="0 0 31 31" fill="none" xmlns="http://www.w3.org/2000/svg">
<path fill-rule="evenodd" clip-rule="evenodd" d="M22.9764 21.3478L30.7866 29.158C31.0711 29.4425 31.0711 29.9026 30.7866 30.1872L30.1872 30.7866C29.9026 31.0711 29.4425 31.0711 29.158 30.7866L21.3478 22.9764C21.2146 22.8372 21.1359 22.6555 21.1359 22.4618V21.8442C18.8897 23.9148 15.8928 25.1863 12.5931 25.1863C5.63664 25.1863 0 19.5496 0 12.5931C0 5.63664 5.63664 0 12.5931 0C19.5496 0 25.1863 5.63664 25.1863 12.5931C25.1863 15.8928 23.9148 18.8897 21.8382 21.1359H22.4618C22.6555 21.1359 22.8372 21.2085 22.9764 21.3478ZM1.93741 12.5931C1.93741 18.4841 6.70221 23.2489 12.5931 23.2489C18.4841 23.2489 23.2489 18.4841 23.2489 12.5931C23.2489 6.70221 18.4841 1.93741 12.5931 1.93741C6.70221 1.93741 1.93741 6.70221 1.93741 12.5931Z" fill="#2A3036"/>
</svg>
