<svg xmlns="http://www.w3.org/2000/svg" width="250" height="56.7" viewBox="30 0 101.975 23.133"><g><path d="M72.946 11.148c-.433.343-.972.376-1.204.076-.232-.301-.068-.822.365-1.164.433-.343.972-.376 1.204-.076.232.301.068.822-.365 1.164zm-7.927 1.36c-.142-.101-.359-.181-.707-.17-.405.013-.826.198-1.213.399-1.703.883-3.739 2.837-4.707 4.325-.44.676-.44.977-.313 1.087.114.1.466.046.965-.241 1.513-.87 4.178-3.524 5.975-5.4zm-8.714-.008c-.132-.112-.314-.151-.661-.149-.404.002-.9.164-1.292.354-1.724.838-3.962 2.878-4.969 4.341-.458.665-.461.997-.329 1.129.111.11.458.019.964-.255 1.534-.831 4.442-3.59 6.287-5.42zm16.441 3.625c3.174-2.113 5.926-4.817 7.157-6.546.667-.937.28-1.364-.692-.75-2.561 1.62-5.829 5.079-6.465 7.296zM92.261 12.5c-.132-.112-.314-.151-.661-.149-.404.002-.9.164-1.292.354-1.723.838-3.962 2.878-4.969 4.341-.458.665-.461.997-.329 1.129.111.11.458.019.964-.255 1.534-.831 4.443-3.59 6.287-5.42zm8.935 3.724l.112.463c-.639.692-2.218 1.772-3.953 2.182-1.445.342-2.521.123-3.144-.513-.53-.541-.624-1.425-.308-2.333-2.953 2.773-4.644 3.059-5.225 2.546-.502-.443-.352-1.475.241-2.267-.886.759-1.865 1.531-2.646 1.988-1.27.742-1.968.452-2.097-.362-.065-.416.116-.974.439-1.559-2.525 2.178-4.439 2.619-5.557 2.262-.476-.152-.804-.554-.957-1.098-3.298 1.752-6 1.644-6.583-.053-2.008 1.102-3.948 1.599-4.708 1.119-.591-.373-.856-1.138-.257-2.353-2.072 1.89-3.892 2.96-4.834 2.346-.576-.375-.396-1.538.164-2.327-.867.781-1.761 1.528-2.53 2.004-1.251.774-1.997.485-2.116-.331-.065-.448.122-1.05.44-1.663-2.646 2.437-4.369 2.848-4.959 2.267-.48-.473-.354-1.44.245-2.241-.886.759-1.865 1.531-2.646 1.988-1.27.742-1.968.452-2.097-.362-.075-.472.17-1.127.578-1.796-3.392 2.77-7.623 5.011-10.474 5.007-3.55-.005-4.567-2.556-3.288-5.613.439-1.048 1.286-2.223 2.363-3.321-3.223-.209-4.709-.951-5.315-2.072-.417-.772-.235-2.18 1.286-3.452 2.31-1.932 6.697-3.168 10.067-3.547.76-.085 1.423-.114 1.787-.108l.309.564c-2.982-.276-8.473 1.145-10.806 3.253-1.604 1.45-1.494 2.785-.703 3.619.565.596 1.527 1.076 3.948 1.187.254-.235.517-.465.789-.688 4.864-3.971 12.716-7.526 17.993-8.257 1.378-.191 2.662-.118 2.921.853.322 1.2-.915 3.07-5.227 5.22-3.725 1.857-9.835 3.473-14.945 3.489-1.121 1.164-2.031 2.324-2.707 3.458-1.583 2.659-.849 4.848 1.67 4.857 3.515.013 8.291-3.214 11.438-5.993a11.613 11.613 0 0 1 1.915-1.384c.858-.525 1.653-.882 2.447-1.1 1.444-.396 2.984-.379 3.955.241-.074.05-.226.146-.342.241-1.977 1.627-4.006 3.863-4.534 4.779-.184.319-.247.606-.104.756.419.444 2.576-.63 5.602-3.568a8.004 8.004 0 0 1 1.073-.886c1.026-.785 2.084-1.328 2.922-1.557 1.369-.375 2.28-.315 2.857-.105.949-.914 2.625-2.452 3.858-3.606.6-.002 1.038.002 1.652-.023-.105.069-.198.127-.295.215-.913.826-2.792 2.504-4.361 3.985-1.921 1.813-3.621 3.635-4.224 4.699-.234.414-.314.7-.125.853.449.362 2.369-.627 5.209-3.261a57.398 57.398 0 0 1 2.994-2.938c.582.001 1.083.001 1.7-.012a4.381 4.381 0 0 0-.524.391c-1.237 1.142-3.305 3.066-4.091 4.209-.632.92-.512 1.348-.236 1.551.518.382 2.415-.105 4.217-1.103-.05-.717.218-1.665.752-2.59.914-1.583 2.995-3.855 6.301-5.747.983-.562 1.739-.747 2.105-.396.348.335.263 1.04-.312 1.904-1.632 2.453-4.591 4.679-7.73 6.719-.188 1.229 1.643 2.213 5.433.136-.034-.734.211-1.646.835-2.625 1.165-1.826 3.417-4.084 6.354-5.754.984-.56 1.708-.771 2.105-.384.356.348.271 1.042-.305 1.907-1.539 2.313-3.873 4.141-7.811 6.779-.214 1.043.516 1.742 2.523.737 1.066-.534 2.457-1.544 4.368-3.219.138-.12.29-.241.426-.346.132-.111.264-.216.394-.307 1.205-.847 2.261-1.383 3.315-1.672 1.444-.396 2.985-.379 3.955.241-.074.05-.226.146-.341.241-1.977 1.627-4.002 3.826-4.53 4.763-.181.322-.228.609-.082.755.313.315 2.151-.248 5.449-3.45.508-.493.827-.796 1.23-1.101 1.102-.872 2.265-1.476 3.418-1.81 1.243-.36 2.48-.322 2.636.613.186 1.117-1.113 2.1-2.392 2.553l-.041-.487c.95-.634 1.775-1.647 1.399-2.184-.224-.317-.866-.272-1.801.152-1.045.474-2.75 1.991-3.628 3.382-.59.936-.72 1.881-.265 2.327.457.448 1.18.487 2.049.294 1.23-.272 2.938-1.196 3.918-2.171zm-61.085-4.567c5.354-.168 9.92-1.754 14.766-4.105 3.051-1.48 4.436-3.013 4.237-3.838-.167-.69-1.198-.688-2.297-.523-5.103.767-12.33 4.516-15.765 7.585-.329.293-.639.587-.941.881zm39.232 4.539c3.191-2.125 6.141-4.999 7.344-6.759.544-.796.082-1.156-.645-.707-2.55 1.575-6.011 5.166-6.699 7.466z" fill="white"/></g></svg>